<?xml version="1.0" standalone="no"?>
<!DOCTYPE svg PUBLIC "-//W3C//DTD SVG 20010904//EN"
 "http://www.w3.org/TR/2001/REC-SVG-20010904/DTD/svg10.dtd">
<svg version="1.0" xmlns="http://www.w3.org/2000/svg"
 width="404.000000pt" height="404.000000pt" viewBox="0 0 404.000000 404.000000"
 preserveAspectRatio="xMidYMid meet">

<g transform="translate(0.000000,404.000000) scale(0.100000,-0.100000)"
fill="#2563eb" stroke="none">
<path d="M560 3840 l0 -70 1455 0 1455 0 0 70 0 70 -1455 0 -1455 0 0 -70z"/>
<path d="M1865 3614 c-333 -49 -600 -178 -815 -395 -348 -351 -517 -911 -460
-1524 69 -735 472 -1251 1094 -1400 153 -37 224 -45 421 -45 266 0 451 35 658
126 172 75 360 219 468 358 64 82 183 317 168 330 -7 6 -471 137 -474 134 -1
-2 -17 -32 -35 -68 -40 -82 -128 -198 -183 -242 -172 -140 -406 -208 -672
-195 -549 28 -902 398 -951 1000 l-7 87 1188 0 1188 0 -6 248 c-6 258 -19 372
-62 542 -126 500 -423 835 -867 980 -145 47 -245 61 -438 65 -102 2 -198 1
-215 -1z m295 -444 c238 -29 436 -136 574 -309 125 -156 189 -331 211 -578 l7
-73 -937 0 -938 0 7 64 c3 35 15 98 26 140 109 428 435 719 846 755 49 5 96 9
104 10 9 0 54 -4 100 -9z"/>
</g>
</svg>
