<?xml version="1.0" standalone="no"?>
<!DOCTYPE svg PUBLIC "-//W3C//DTD SVG 20010904//EN"
 "http://www.w3.org/TR/2001/REC-SVG-20010904/DTD/svg10.dtd">
<svg version="1.0" xmlns="http://www.w3.org/2000/svg"
 width="1250.000000pt" height="1250.000000pt" viewBox="0 0 1250.000000 1250.000000"
 preserveAspectRatio="xMidYMid meet">

<g transform="translate(0.000000,1250.000000) scale(0.100000,-0.100000)"
fill="#2563eb" stroke="none">
<path d="M1230 8360 l0 -130 5020 0 5020 0 0 130 0 130 -5020 0 -5020 0 0
-130z"/>
<path d="M10046 7820 c-93 -30 -146 -111 -146 -224 0 -176 68 -246 240 -246
172 0 240 70 240 246 0 57 -5 81 -27 125 -39 75 -88 102 -198 106 -44 1 -93
-2 -109 -7z"/>
<path d="M7060 7371 l0 -421 -180 0 -180 0 0 -150 0 -150 180 0 180 0 0 -582
c0 -741 6 -794 97 -978 40 -81 62 -110 143 -190 74 -75 113 -105 177 -138 142
-74 294 -101 448 -82 282 35 507 196 639 458 l26 52 -57 26 c-175 78 -236 104
-238 102 -1 -2 -15 -28 -31 -58 -42 -79 -142 -176 -218 -210 -98 -45 -170 -56
-270 -42 -148 19 -249 88 -316 213 -65 122 -63 102 -67 797 l-4 632 475 0 476
0 0 150 0 150 -475 0 -475 0 0 409 0 409 -62 6 c-35 3 -109 8 -165 12 l-103 7
0 -422z"/>
<path d="M2300 7001 c-128 -19 -267 -67 -374 -129 -88 -52 -231 -200 -285
-296 -83 -147 -132 -326 -151 -550 -36 -454 20 -733 198 -973 277 -372 806
-486 1277 -275 108 48 228 128 308 204 l67 63 -95 115 c-53 63 -100 116 -104
118 -5 2 -40 -24 -77 -58 -89 -78 -155 -123 -257 -170 -122 -56 -203 -74 -332
-74 -191 1 -327 55 -450 179 -119 119 -188 270 -204 442 l-7 83 791 2 790 3
-1 200 c-1 326 -36 524 -123 700 -103 206 -259 334 -486 395 -65 18 -113 23
-255 25 -96 2 -200 0 -230 -4z m355 -306 c183 -50 307 -181 365 -387 14 -48
23 -117 27 -200 l6 -128 -618 0 -618 0 7 83 c32 372 185 584 463 642 86 18
284 12 368 -10z"/>
<path d="M4855 6991 c-124 -22 -191 -43 -276 -88 -144 -75 -263 -202 -315
-339 -21 -53 -28 -93 -32 -174 -11 -256 87 -406 357 -540 152 -76 287 -118
571 -179 393 -85 509 -171 470 -348 -43 -190 -253 -332 -518 -349 -237 -16
-429 68 -656 286 l-102 99 -109 -109 -108 -109 17 -25 c68 -104 267 -270 401
-335 330 -159 802 -142 1078 38 236 155 357 426 303 682 -39 184 -170 309
-421 404 -102 38 -189 61 -378 101 -257 53 -423 112 -514 181 -18 14 -43 48
-58 76 -59 118 -13 245 121 338 134 92 438 135 631 88 62 -15 179 -69 235
-107 24 -16 70 -55 104 -85 l61 -56 103 104 103 103 -31 39 c-111 141 -276
237 -502 294 -123 30 -395 36 -535 10z"/>
<path d="M9562 6828 l3 -123 180 -11 c99 -7 201 -12 228 -13 l47 -1 0 -840 0
-840 -345 0 -345 0 0 -135 0 -135 844 0 845 0 -10 32 c-5 18 -9 79 -9 135 l0
103 -330 0 -330 0 0 975 0 975 -390 0 -391 0 3 -122z"/>
</g>
</svg>
