<?xml version="1.0" standalone="no"?>
<!DOCTYPE svg PUBLIC "-//W3C//DTD SVG 20010904//EN"
 "http://www.w3.org/TR/2001/REC-SVG-20010904/DTD/svg10.dtd">
<svg version="1.0" xmlns="http://www.w3.org/2000/svg"
 width="326.000000pt" height="326.000000pt" viewBox="0 0 326.000000 326.000000"
 preserveAspectRatio="xMidYMid meet">

<g transform="translate(0.000000,326.000000) scale(0.100000,-0.100000)"
fill="#2563eb" stroke="">
<path d="M440 2820 l0 -120 1185 0 1185 0 0 120 0 120 -1185 0 -1185 0 0 -120z"/>
<path d="M1490 2460 c-230 -31 -400 -117 -549 -277 -127 -135 -206 -310 -247
-548 -22 -124 -30 -495 -14 -622 56 -444 347 -768 770 -860 112 -24 321 -23
440 1 164 34 315 97 439 183 72 50 191 154 191 166 0 11 -179 231 -192 235 -5
2 -30 -16 -57 -41 -243 -227 -529 -312 -801 -236 -254 70 -435 308 -466 612
l-6 67 790 0 c711 0 790 2 796 16 18 47 -1 408 -30 584 -70 417 -301 661 -684
720 -74 11 -297 11 -380 0z m365 -310 c82 -26 142 -58 198 -109 115 -103 187
-305 187 -525 l0 -76 -615 0 -615 0 0 43 c0 58 26 221 46 287 66 222 232 369
459 404 74 11 271 -3 340 -24z"/>
</g>
</svg>
