<?xml version="1.0" standalone="no"?>
<!DOCTYPE svg PUBLIC "-//W3C//DTD SVG 20010904//EN"
 "http://www.w3.org/TR/2001/REC-SVG-20010904/DTD/svg10.dtd">
<svg version="1.0" xmlns="http://www.w3.org/2000/svg"
 width="700.000000pt" height="700.000000pt" viewBox="0 0 700.000000 700.000000"
 preserveAspectRatio="xMidYMid meet">
<metadata>
Created by potrace 1.14, written by Peter Selinger 2001-2017
</metadata>
<g transform="translate(0.000000,700.000000) scale(0.100000,-0.100000)"
fill="#000000" stroke="none">
<path d="M951 6310 c-4 -3 -7 -117 -6 -254 l0 -250 25 -5 c19 -5 4972 -6 5050
-2 13 1 15 36 15 256 0 248 -1 255 -20 256 -99 4 -5059 3 -5064 -1z"/>
<path d="M3338 5295 c-2 -1 -39 -5 -83 -9 -44 -4 -107 -11 -140 -17 -33 -6
-69 -12 -80 -14 -11 -1 -49 -11 -85 -20 -36 -9 -72 -18 -80 -20 -51 -11 -191
-65 -287 -110 -222 -105 -404 -244 -591 -451 -74 -82 -176 -223 -212 -291 -14
-27 -30 -55 -36 -63 -9 -12 -83 -176 -115 -255 -48 -120 -120 -407 -144 -568
-10 -74 -13 -102 -31 -347 -9 -124 -11 -729 -3 -840 28 -376 152 -768 324
-1028 19 -30 35 -56 35 -58 0 -2 26 -39 58 -80 31 -42 66 -88 76 -103 11 -14
68 -74 127 -133 237 -235 501 -395 824 -499 49 -16 99 -32 110 -34 11 -3 49
-11 85 -20 36 -8 82 -17 103 -20 20 -3 56 -8 80 -11 65 -10 484 -12 557 -4 36
4 90 11 120 14 150 16 464 105 630 178 55 24 220 107 275 138 56 31 220 145
280 194 163 135 275 240 275 260 0 6 -150 201 -225 291 -95 115 -178 205 -188
205 -18 0 -59 -29 -134 -96 -188 -168 -346 -277 -540 -372 -130 -64 -312 -128
-418 -146 -16 -3 -41 -8 -55 -11 -96 -20 -320 -26 -450 -13 -504 53 -913 366
-1117 858 -66 157 -116 364 -129 530 -2 30 -6 68 -8 83 -3 16 1 30 7 32 7 3
757 6 1667 9 910 2 1670 7 1688 11 23 5 37 16 44 34 11 28 13 314 4 481 -20
358 -52 660 -86 835 -6 28 -12 60 -15 72 -12 63 -61 230 -95 320 -236 629
-716 998 -1405 1082 -61 7 -609 13 -617 6z m317 -630 c87 -7 131 -12 185 -21
19 -3 49 -7 67 -9 55 -8 185 -54 271 -97 146 -72 275 -183 368 -316 111 -158
212 -436 240 -657 3 -22 8 -51 10 -65 3 -14 8 -111 11 -217 l6 -192 -1323 0
-1323 -1 6 128 c3 70 8 136 10 147 3 11 8 43 11 70 4 28 8 61 11 75 3 14 7 36
9 50 63 360 179 597 392 800 162 154 389 265 619 303 81 14 281 15 430 2z"/>
</g>
</svg>
